/* XPM */
static char *fbc799b201bd4cc8f2b898611e4f68ad8LHCUEYmwBEiUA5G[] = {
/* columns rows colors chars-per-pixel */
"64 64 156 2 ",
"   c None",
".  c #001F1C",
"X  c #34171D",
"o  c #36181E",
"O  c #38191F",
"+  c #02231E",
"@  c #3C1D22",
"#  c #062720",
"$  c #072A21",
"%  c #0A2C22",
"&  c #1F2320",
"*  c #112A22",
"=  c #0D3324",
"-  c #0E3924",
";  c #113625",
":  c #123B26",
">  c #163728",
",  c #153E28",
"<  c #1B3D2B",
"1  c #252121",
"2  c #2B2222",
"3  c #322625",
"4  c #372927",
"5  c #3A2B29",
"6  c #411F23",
"7  c #442226",
"8  c #462528",
"9  c #4A2629",
"0  c #4D292B",
"q  c #522C2D",
"w  c #582F2F",
"e  c #58302F",
"r  c #553131",
"t  c #5B3332",
"y  c #653A37",
"u  c #653C39",
"i  c #683E3A",
"p  c #174329",
"a  c #19452A",
"s  c #1B4B2B",
"d  c #1E522D",
"f  c #22442E",
"g  c #214C2E",
"h  c #21552E",
"j  c #23592F",
"k  c #274930",
"l  c #2A4C32",
"z  c #255230",
"x  c #2C5333",
"c  c #255D30",
"v  c #2D5B34",
"b  c #325436",
"n  c #325C36",
"m  c #375938",
"M  c #3A5C39",
"N  c #266131",
"B  c #2A6533",
"V  c #2D6C35",
"C  c #316F36",
"Z  c #3A643A",
"A  c #356E38",
"S  c #3B6B3B",
"D  c #2F7036",
"F  c #327037",
"G  c #367339",
"H  c #39753A",
"J  c #3E7B3D",
"K  c #6C423E",
"L  c #44663F",
"P  c #436D3E",
"I  c #427A3E",
"U  c #714741",
"Y  c #754A43",
"T  c #7B4D46",
"R  c #7D5048",
"E  c #466A40",
"W  c #4A6C41",
"Q  c #4C7242",
"!  c #457E40",
"~  c #4E7E44",
"^  c #537546",
"/  c #517245",
"(  c #567847",
")  c #587A49",
"_  c #5C7F4A",
"`  c #83554C",
"'  c #86584E",
"]  c #895A4F",
"[  c #8C5C51",
"{  c #926155",
"}  c #996759",
"|  c #9D6A5C",
" . c #A36F60",
".. c #A57161",
"X. c #A87363",
"o. c #AF7967",
"O. c #B17B68",
"+. c #478141",
"@. c #488142",
"#. c #4B8243",
"$. c #4B8543",
"%. c #4C8443",
"&. c #4B8343",
"*. c #508745",
"=. c #548047",
"-. c #538947",
";. c #518846",
":. c #578048",
">. c #5E804B",
",. c #5D824B",
"<. c #568848",
"1. c #578A49",
"2. c #568B48",
"3. c #5E8D4C",
"4. c #5F934D",
"5. c #5F944C",
"6. c #5C904B",
"7. c #62844D",
"8. c #63864E",
"9. c #608F4D",
"0. c #60944D",
"q. c #698F51",
"w. c #698C51",
"e. c #669750",
"r. c #669350",
"t. c #6B9352",
"y. c #6D9153",
"u. c #6A9752",
"i. c #699551",
"p. c #6D9153",
"a. c #669850",
"s. c #6B9C52",
"d. c #6D9E54",
"f. c #6A9A52",
"g. c #729555",
"h. c #759757",
"j. c #749A56",
"k. c #729955",
"l. c #7B9D5A",
"z. c #799E59",
"x. c #72A056",
"c. c #73A256",
"v. c #77A558",
"b. c #78A259",
"n. c #78A558",
"m. c #7BA55A",
"M. c #7FA95C",
"N. c #82A55D",
"B. c #82A75D",
"V. c #83AB5E",
"C. c #80AC5D",
"Z. c #86AF5F",
"A. c #84A85E",
"S. c #8DB263",
"D. c #8EB463",
"F. c #89B161",
/* pixels */
"                                                                                                                                ",
"                                                                                                                                ",
"                                                                                                                                ",
"                                                                                                                                ",
"                                                                                                                                ",
"                                                                                                                                ",
"                                                                                                                                ",
"                                                                                                                                ",
"                                                                                                                                ",
"                                                                                                                                ",
"                                                                                                                                ",
"                                                                                                                                ",
"                                                                                                                                ",
"                                                            = = = =                                                             ",
"                                                      % = p s d d s : = +                                                       ",
"                                                    # % = p h B V B v z k f f                                                   ",
"                                                    # % = p d B H &.3.t.y.>.L k ; +                                             ",
"                                                  % = = : s h B H $.5.s.i.:.Z a % + .                                           ",
"                                            $ % % = ; p s d c B V G G H A B g , = $ #                                           ",
"                                          # # $ % = : p s s d h j N N V V A S P E L M k >                                       ",
"                                          $ $ % = = : p p a a s s d j B G %.e.n.N.g.^ b > # +                                   ",
"                                      % = = ; ; : , p p s s d j c N N B G *.d.Z.S.z.) b > # +                                   ",
"                                  # $ % = ; , p p p p a s h c B V V V V G &.6.x.b.w.Q x ; # +                                   ",
"                                  # $ % = ; , p p p p a s h N V V V V V C G J ! ! S x a % + +                                   ",
"                                $ $ $ % = = ; : p p p p s d j c B B V V V V V V V B v v x l k f                                 ",
"                          $ $ $ $ % % % % % = = = ; , p a a s s s h c B V V V V C I 2.i.j.y.( M < % +                           ",
"                          $ $ $ $ % % % % % % % = = ; ; : : , p a s d h c N N B F &.a.C.D.N.8.M < % +                           ",
"                          $ $ $ % % % % % = % % % % % = = ; : p p a a s s d j N C ! 0.n.A.z._ M < % +                           ",
"                          $ $ $ % $ % % = = ; ; ; ; ; ; ; : , p a s d h c N B V C H +.;.2.~ Z g ; + .                           ",
"                          $ % % % % % = ; : p p p p p p p p p p s d j N B V V V V V C F V B c g a > >                           ",
"                    $ $ $ $ % = = ; ; , p p p p p p p p p p p p a s s s h j N B V V V B V G I =.,.>.Q M f =                     ",
"                  $ $ $ $ % % = = ; : , p p p p p p p p p p p p p a a s s h c B V V V B C I 6.v.F.A.w.L f % +                   ",
"                  $ $ $ $ % % % % = = = ; : p p p p p p p p p p a s h c B B V V V V V B C I 6.v.F.A.w.L f % +                   ",
"              $ $ $ $ % % % % % = = = = ; : p p p p p p a s s d h c B V V D V V V V V V C H &.6.f.r.=.S z p - = =               ",
"          $ $ $ % % % % % % % = = ; , p p p p p p p p a s d c B B V V V V V V V V V V V V C F G H H G C V B h s ; % #           ",
"        $ $ $ $ % % % = = ; ; ; , p p a a a a p p p p p s s h j c c c j c N B V V V V V V V B V B C J %.2.2.Q n a = # +         ",
"        $ $ $ $ % % % = ; : p p p p p p p p p p p p p p p p a a a p p a s d j B B V V V V V B V V H ;.s.M.A.y.W l ; # +         ",
"        $ $ $ $ % % % = = = ; ; ; ; ; ; = = = ; ; : p p p p p p p p p p p a s s h j c B V V V V V H 2.c.F.S.h./ l ; # +         ",
"        $ $ $ $ % % % % % % % % % % % % % % = = = ; , p p p p p p p p p p a a s s d c B V V V V V H &.9.k.k.8.E l ; #           ",
"        $ $ $ $ % % % % % % % % % % % % = ; ; , p p p p p p p p p p p p a s h c N B V V V V D V V V B v x x l f                 ",
"          $ $ $ % % % % % % % % % % % = = ; ; , p p p p p a a a p p p p a s h c N B B B B B B B B c s : = # +                   ",
"                $ $ $ $ % % % % % % % % % % = = = ; , p p a a p p p p p p a s s s s s s s s s s s a , = % $ #                   ",
"                    $ $ $ % % % % % % % % % % % = = ; ; : : : ; : : ; ; : , p p p p , ; ; ; ; ; ; = = = % %                     ",
"                          $ $ $ $ $ $ $ $ % % % % % % = = = % % = = % % = = ; , p , ; = % % $ $ % % %                           ",
"                                      $ $ $ % % % % % % # # # # % # # # % % = = = = = % $                                       ",
"                                            $ $ $ $ % % % % * * * * % % % % $ $ $ $                                             ",
"                                                  & 1 2 2 3 4 5 5 4 3 2 2 1 &                                                   ",
"                                                    @ @ 7 q t u u t q 7 @ @                                                     ",
"                                                    O @ 0 u T [ [ T u 0 @ o                                                     ",
"                                                    o @ 0 K ' | | [ U r 8 @ @                                                   ",
"                                                    o @ q K ' | | { R i t 0 8 7 @ @                                             ",
"                                                O @ 6 9 t U [ | X...} [ R K t 9 @ O o                                           ",
"                                          7 7 8 9 0 w t K T [ | ..X.X. .} ` K r 7 @ o                                           ",
"                                    @ 8 r i Y R ` ' ] [ ] ` ` T T T T T Y K u t q 9 7 7 @ @                                     ",
"                                  X @ 8 t Y { ..o.O.o.X.| ] Y y t w e t t t t t t w 0 7 @ @ @                                   ",
"                                                                                                                                ",
"                                                                                                                                ",
"                                                                                                                                ",
"                                                                                                                                ",
"                                                                                                                                ",
"                                                                                                                                ",
"                                                                                                                                ",
"                                                                                                                                ",
"                                                                                                                                "
};
