/* XPM */
static char *_30f96428cfa4e64a88e9e63da9c0c45jJDuBi6XLDEeai7O[] = {
/* columns rows colors chars-per-pixel */
"15 36 9 1 ",
"  c None",
". c #3B1C21",
"X c #082A21",
"o c #0B2E23",
"O c #5B3231",
"+ c #174429",
"@ c #2E6D35",
"# c #AA7564",
"$ c #94B866",
/* pixels */
"               ",
"               ",
"               ",
"               ",
"               ",
"               ",
"               ",
"       X       ",
"      X@X      ",
"      X@$X     ",
"     X+@@X     ",
"     X++@$X    ",
"    X++@@$X    ",
"    X++@@@X    ",
"   Xoo++@@$X   ",
"   Xooo++@$X   ",
"   Xo+++@@@X   ",
"  Xo+++++@@$X  ",
"  Xoo+++@@@$X  ",
" Xoo+++@@@@@@X ",
" Xo++++++@@@$X ",
" Xoooo++++@@$X ",
" Xooo++++@@@X  ",
"  Xooo++++++X  ",
"   XXoooo+XX   ",
"     XXXXX     ",
"      .O.      ",
"      .#.      ",
"      .#O.     ",
"     .O##.     ",
"    .##OOO.    ",
"               ",
"               ",
"               ",
"               ",
"               "
};
