/* XPM */
static char *_c0bb37ae4954ca5cd8708a73a3cb1d03afJ0cg7xlbxQOk8[] = {
/* columns rows colors chars-per-pixel */
"64 64 248 2 ",
"   c black",
".  c black",
"X  c black",
"o  c black",
"O  c black",
"+  c black",
"@  c black",
"#  c black",
"$  c black",
"%  c black",
"&  c black",
"*  c black",
"=  c gray1",
"-  c #060606",
";  c #0C0C0C",
":  c #060606",
">  c black",
",  c black",
"<  c black",
"1  c None",
"2  c #232323",
"3  c #0C0C0C",
"4  c black",
"5  c #090909",
"6  c gray2",
"7  c #111111",
"8  c #181818",
"9  c black",
"0  c black",
"q  c black",
"w  c black",
"e  c #0C0C0C",
"r  c #060606",
"t  c #232323",
"y  c gray5",
"u  c #070707",
"i  c #232323",
"p  c #0C0C0C",
"a  c #010101",
"s  c gray2",
"d  c #070707",
"f  c #111111",
"g  c #161616",
"h  c gray3",
"j  c black",
"k  c black",
"l  c gray9",
"z  c black",
"x  c black",
"c  c black",
"v  c gray5",
"b  c #0B0B0B",
"n  c gray18",
"m  c #111111",
"M  c gray6",
"N  c gray3",
"B  c gray18",
"V  c gray6",
"C  c gray6",
"Z  c #2F2F2F",
"A  c #101010",
"S  c #090909",
"D  c gray14",
"F  c #060606",
"G  c #070707",
"H  c gray3",
"J  c #0C0C0C",
"K  c #0E0E0E",
"L  c #191919",
"P  c gray11",
"I  c #1B1B1B",
"U  c gray9",
"Y  c gray15",
"T  c #2C2C2C",
"R  c #1E1E1E",
"E  c gray16",
"W  c gray17",
"Q  c gray19",
"!  c #3C3C3C",
"~  c #414141",
"^  c gray26",
"/  c #343434",
"(  c gray10",
")  c gray5",
"_  c #090909",
"`  c gray18",
"'  c gray21",
"]  c #393939",
"[  c gray25",
"{  c gray27",
"}  c #494949",
"|  c gray29",
" . c #4B4B4B",
".. c #434343",
"X. c gray20",
"o. c #181818",
"O. c #353535",
"+. c gray23",
"@. c #3E3E3E",
"#. c #444444",
"$. c #4C4C4C",
"%. c gray31",
"&. c #4E4E4E",
"*. c #2A2A2A",
"=. c #272727",
"-. c #3A3A3A",
";. c gray30",
":. c #464646",
">. c #060606",
",. c #2D2D2D",
"<. c #505050",
"1. c gray28",
"2. c #222222",
"3. c gray8",
"4. c gray24",
"5. c #323232",
"6. c gray4",
"7. c #161616",
"8. c gray13",
"9. c #313131",
"0. c #484848",
"q. c #2F2F2F",
"w. c #3F3F3F",
"e. c #232323",
"r. c #282828",
"t. c #101010",
"y. c #1D1D1D",
"u. c #252525",
"i. c #373737",
"p. c gray22",
"a. c #2F2F2E",
"s. c #2C2D2D",
"d. c #171818",
"f. c #0B0C0D",
"g. c #333434",
"h. c #2C2D2E",
"j. c #252323",
"k. c #170F0C",
"l. c #0F0500",
"z. c #2D2E2E",
"x. c #202020",
"c. c #191A1A",
"v. c #0B0D0E",
"b. c #17100D",
"n. c #2C150A",
"m. c #371809",
"M. c #0C0E0E",
"N. c #0C0D0E",
"B. c #0C0D0D",
"V. c #252221",
"C. c #0F0501",
"Z. c #0E0501",
"A. c #200D05",
"S. c #411C0B",
"D. c #54250E",
"F. c #0F0602",
"G. c #0F0601",
"H. c #252322",
"J. c #2E2E2F",
"K. c #19191A",
"L. c #2C1409",
"P. c #371709",
"I. c #361709",
"U. c #401B0A",
"Y. c #55250E",
"T. c #602910",
"R. c #401B0B",
"E. c #351709",
"W. c #2B140A",
"Q. c #160F0C",
"!. c #161818",
"~. c #0B0C0C",
"^. c #4E220E",
"/. c #50230E",
"(. c #56250F",
"). c #652C10",
"_. c #51230E",
"`. c #52240E",
"'. c #53240E",
"]. c #411C0A",
"[. c #1F0C04",
"{. c #2B2B2C",
"}. c #100601",
"|. c #5B270F",
" X c #602A10",
".X c #632B10",
"XX c #652B10",
"oX c #5E290F",
"OX c #5F2910",
"+X c #2C2C2D",
"@X c #642B10",
"#X c #5F290F",
"$X c #434344",
"%X c #343435",
"&X c #242222",
"*X c #1F0D05",
"=X c #100602",
"-X c #0D0E0E",
";X c gray6",
":X c #18191A",
">X c #150F0C",
",X c #55240E",
"<X c #111111",
"1X c #232221",
"2X c #140E0B",
"3X c #57260F",
"4X c #612A10",
"5X c #131313",
"6X c #2A1409",
"7X c gray7",
"8X c #242221",
"9X c #150E0B",
"0X c #16100D",
"qX c #242322",
"wX c #2B1409",
"eX c #622A10",
"rX c #5D2910",
"tX c #5E2910",
"yX c #58260F",
"uX c #515151",
"iX c #4F230F",
"pX c #4F240F",
"aX c #161718",
"sX c #2B2C2C",
"dX c #59270F",
"fX c #431F0E",
"gX c #662C10",
"hX c #3C1C0C",
"jX c #5A270F",
"kX c #441E0C",
"lX c gray32",
"zX c #672C10",
"xX c #0D0E0F",
"cX c #202121",
"vX c #090A0A",
"bX c #0C0501",
"nX c #281107",
"mX c #3D1A0A",
"MX c #471F0C",
"NX c #4B200C",
"BX c #0A0B0B",
"VX c gray1",
"CX c #040100",
"ZX c #0D0502",
"AX c #130803",
"SX c #160A04",
"DX c #180A04",
"FX c white",
/* pixels */
"                                                                                                                                ",
"                                                                                                                                ",
"                                                                                                                                ",
"                                                                                                                                ",
"                                                                                                                                ",
"                                                                                                                                ",
"                                                                                                                                ",
"                                                                                                                                ",
"                                                                                                                                ",
"                                                                                                                                ",
"                                                                                                                                ",
"                          . X o o O O O O O O o o X .                                                                           ",
"                          + @ # $ % % % % % % $ # @ +                                                                           ",
"                      & * = - G H H G H J K K K K ; : > , O O O O O O O O O O O O O O o o X .                                   ",
"                      * < - 1 L P I U I Y T T T T 2 3 4 4 % % % % % % % % % % % % % % $ # @ +                                   ",
"                  . + = - K R E T T W Q ! ~ ~ ^ ^ / ( J ) K K K K K K K K K K K K J H G _ 5 6 + .                               ",
"                  X @ - 7 R ` ' ' ] [ { } | |  . ...X.W W T T T T T T T T T T T T Y I o.P 8 5 @ X                               ",
"                  o # _ P T O.+.@.#.$.%.%.&.&.%.%. .#.~ ~ ~ ~ ~ ~ ~ ~ ~ ~ ~ ~ ~ ~ ! Q *.=.I H 9 0                               ",
"                  o $ J =.' O.-.{  .&.%.&.&.&.&.&.;. .| | | | | | | | | | | | | | } :.+.E U >.q w                               ",
"                  O % K ,.! -.@.} %.&.&.&.&.&.&.&.&.&.&.&.&.&.&.&.&.&.&.&.&.&.&.&.%.<.1./ 2.3.e r > , o o X .                   ",
"                  O % K T [ { } ;.&.&.&.&.&.&.&.&.&.&.&.&.&.&.&.&.&.&.&.&.&.&.&.&.%.%.$.:.4.5.t e 4 % $ # @ +                   ",
"                  , % ) W ~  .%.&.&.&.&.&.&.&.&.&.&.&.&.&.%.%.&.&.&.&.&.&.&.&.&.&.&.&.&.%.;.:.5.3.>.G 6.) y u * &               ",
"                  > 4 ) W ~ | %.&.&.&.&.&.&.&.&.&.&.&.&.%.%.%.%.&.&.&.&.&.&.&.&.&.&.&.&.%.&.;.4.2.7.( 8.E i p < *               ",
"      . X o o , > a s 3.9.#. .&.&.&.&.&.&.&.&.&.&.%.%.$.0.{ { 0.$.%.%.%.%.&.&.&.&.&.&.&.&.%.%.:.X.T q.' w.X.7.d = + .           ",
"      + @ # $ % 4 s f e.4.$.&.&.&.&.&.&.&.&.&.&.%.%.%.0.-.5.5.-.0.%.%.%.%.%.&.&.&.&.&.&.&.&.&.$.:...#.1.| [ r.g h @ X           ",
"  . * 6 5 _ _ H H t.2./ :.%.%.&.&.&.&.&.&.&.&.$.1.{ :.[ / ` ` / [ :.:.{ { 0.$.%.&.&.&.&.&.&.&.&.%.%.%.%.%.:.5.y._ # o           ",
"  j k 5 l y.y.P I u.] 1.$.&.&.&.&.&.&.&.&.&.%.0.-.5.X./ i.p.p.i./ X.X.X.5.-.0.%.%.&.&.&.&.&.&.&.%.%.%.%.%.:.5.y._ $ o           ",
"  O q _ y.W Q 9.9.] 0.<.%.&.&.&.&.&.&.&.&.%.%.1.' ` a.` ,.s.s.,.` q.q.q.` / [ 0.;.%.&.&.&.&.&.&.&.&.&.%.%.{ 9.P _ % O           ",
"  z x _ y.Q w.:.{ 1.$.%.&.&.&.&.&.&.&.&.&.&.%.} 4.p.] ` d.f.f.d.` ] ] p.p.' / -.0.%.%.&.&.&.&.&.&.&.&.%.%.{ 9.P _ % O           ",
"  0 c _ P 5.:.<.<.%.&.&.&.&.&.&.&.&.&.&.&.&.$...g.s.h.j.k.l.l.k.j.z.h.s.s.s.` / [ 0.;.%.&.&.&.&.&.&.&.%.%.:.O.x.6.% O           ",
"  0 c _ P 9.:.<.%.&.&.&.&.&.&.&.&.&.&.&.%.$.{ / c.f.v.b.n.m.m.n.b.M.M.N.B.d.` i./ -.0.%.%.&.&.&.&.&.&.&.%.} 4.r.J % O           ",
"  0 c _ P 9.{ %.%.&.&.&.&.&.&.&.&.&.&.;. .../ V.k.C.Z.A.S.D.D.S.A.Z.F.G.C.k.H.z.J./ [ 0.;.%.&.&.&.&.&.&.&.| ~ T K % O           ",
"  0 c _ P 9.{ %.%.&.&.&.&.&.&.&.&.&.&. .#.X.K.k.L.P.I.U.Y.T.T.Y.R.E.E.I.P.W.Q.!.z.i./ -.0.%.%.&.&.&.&.&.&.| ~ T K % O           ",
"  0 c _ P 9.{ %.%.&.&.&.&.&.&.&.&.&.&.| ~ W ~.C.m.^./.(.T.).).T.(._._.`.'.].[.Q.H.` ` / [ 0.$.&.&.&.&.&.&.| ~ T K % O           ",
"  0 c _ P 9.{ %.%.&.&.&.&.&.&.&.&.&.&.| ~ {.f.}.P._.|. X.XXXXX.XT.oXoXOXT.Y.].W.k.d.s.' / -.0.%.&.&.&.&.&.| ~ T K % O           ",
"  z x 6.8.' 1.%.%.&.&.&.&.&.&.&.&.&.%. .^ +XN.F.E._.OXXXXX@X@X@X@XXXXXXX).T.'.P.C.B.s.p.` 5.{ %.%.&.&.&.&.| ~ W K % O           ",
"  O q ) E @.| %.&.&.&.&.&.&.&.&.&.&.%. .^ s.v.Z.E._.#XXXXX@X@X@X@X@X@XXXXXOX`.I.G.N.s.p.q.X.{ %.%.&.&.&.&.| ~ W K % O           ",
"  j k v 2 O... .;.&.&.&.&.&.&.&.&.&.$.$X%X&XQ.*XU.(.T.@X@X@X@X@X@X@X@X@XXX#X_.I.=X-Xs.p.q.X.{ %.%.&.&.&.&. .{ q.;X% O           ",
"  . + : 3 ( X.#. .&.&.&.&.&.&.&.%.$.{ g.:X>XW.S.,XT..X@X@X@X@X@X@X@X@X@XXX#X_.I.=X-Xs.p.q.X.{ %.%.&.&.&.&.&.$.i.<X% O           ",
"      w q ) W ~ | &.&.&.&.&.&.&.$.$Xg.1X2X[.].3X4XXX@X@X@X@X@X@X@X@X@X@XXXoX_.E.F.M.h.] q.X.:.%.%.&.&.&.&.%.<.+.5X% O           ",
"      0 9 ) T ^  .&.&.&.&.&.%.$.{ g.:X2X6X].Y.4X@X@X@X@X@X@X@X@X@X@X@X@XXXoX_.E.Z.M.z.] q.X.:.%.%.&.&.&.&.%.<.+.7X% O           ",
"      X @ ; 2 ' :.%.&.&.&.;. .../ 8X9X[.].3X4XXX@X@X@X@X@X@X@X@X@X@X@X@XXX X(.U.*X0XqXz.q.O.[ 0.$.&.&.&.&.%.<.-.7X% O           ",
"      . + : b y.@.%.%.&.&. .#.X.K.Q.wX].Y.4X@X@X@X@X@X@X@X@X@X@X@X@X@X@XXX@XT.,XS.W.>X!.z.p./ ] 1.%.&.&.&.%.<.-.7X% O           ",
"          > 4 <X-.<.%.&.&.| ~ W ~.C.P.'.T.XXXX@X@X@X@X@X@X@X@X@X@X@X@XeXrXtX.X4XyX].[.>XqXz.` i.1.%.%.&.&.%.uX+.7X$ o           ",
"          , 4 7X-.<.%.&.&.| ~ {.f.G.I.`.OXXX@X@X@X@X@X@X@X@X@X@X@X@XXXrXiXpXtX@X4XY.].6X>XaXs.@.| %.&.&.&.<.uX+.5X# o           ",
"          O % 7X-.<.%.&.&.| ~ sXN.=XI._.#XXX@X@X@X@X@X@X@X@X@X@X@XXXXXdXfXfXdX).gX4X3X].[.>XH.O... .;.%.%. .[ n m @ X           ",
"          O % 7X-.<.%.&.&.| ~ sXN.=XI._.#XXX@X@X@X@X@X@X@X@X@X@X@XXXXX3XhXhX3X).XX@X4XY.].wXQ.c.X.#. .<.uX[ 8.M N + .           ",
"          O % 7X-.<.%.&.&.| ~ sXN.=XI._.#XXX@X@X@X@X@X@X@X@X@X@X@XXXXXjXkXkXjXXXXXXXXXT.'.P.C.~.W ~  . .~ B V < *               ",
"          O % 7X-.<.%.&.&.| ~ sXN.=XI._.#XXX@X@X@X@X@X@X@X@X@X@X@X@X@X4XjXjX4X@X@X@XXXOX`.I.G.f.{.^ $.[ 8.C : * &               ",
"          o $ 7X+.uX%.&.&.| ~ sXN.=XI._.#XXX@X@X@X@X@X@X@X@X@X@X@X@X@X@XXXXX@X@X@X@XXX#X_.I.=XN.sX^ ;.+.<Xq w                   ",
"          o # 5X+.uX<.&.&.| ~ sXN.=XI._.#XXX@X@X@X@X@X@X@X@X@X@X@X@X@X@XXXXX@X@X@X@XXX#X_.I.=XN.sX..&.! 7X9 0                   ",
"          X @ m n [  .<.<. .^ +XN.=XP.`.T.gXgX).).).).).).).).).).).).).).).).).).gXgXT.`.P.=X-Xs.@.4.Z m @ X                   ",
"          . + N M 8.[ lXuX$.^ s.-X=Xm.'.4XzXzXgXgXgXgXgXgXgXgXgXgXgXgXgXgXgXgXgXgXzXzX4X'.m.=XxXJ.X.y.A S + .                   ",
"              * < M n ! +.p.9.cXvXbXnXmXMXNXNXNXNXNXNXNXNXNXNXNXNXNXNXNXNXNXNXNXNXNXNXMXmXnXbXBX2.D p < *                       ",
"              & * N m 5X5X7X;X6.VXCXZXAXSXDXDXDXDXDXDXDXDXDXDXDXDXDXDXDXDXDXDXDXDXDXDXSXAXZXCXVXBXy F * &                       ",
"                  + @ # $ % % % % % % % % % % % % % % % % % % % % % % % % % % % % % % % % % % $ # @ +                           ",
"                  . X o o O O O O O O O O O O O O O O O O O O O O O O O O O O O O O O O O O O o o X .                           ",
"                                                                                                                                ",
"                                                                                                                                ",
"                                                                                                                                ",
"                                                                                                                                ",
"                                                                                                                                ",
"                                                                                                                                ",
"                                                                                                                                "
};
