/* XPM */
static char *_05f5217610149bdc76dc2bca4ceb0be0wZ7ZNVodjysi79L[] = {
/* columns rows colors chars-per-pixel */
"23 24 8 1 ",
"  c None",
". c #323821",
"X c #C43F31",
"o c #88A043",
"O c #9FBC4D",
"+ c #D8B78F",
"@ c #FFD7A8",
"# c white",
/* pixels */
"                       ",
"                       ",
"                       ",
"                       ",
"                       ",
"      .........        ",
"     ..XX.oOOOO.       ",
"     .XX.oOOooOO.      ",
"      .X.o#.#oOO.      ",
"     .X..o#.#OOO.      ",
"     ..X.o###OOO.      ",
"     .XX.oOOOOO.       ",
"      .X.ooO...        ",
"      ..ooOOO.         ",
"      .oo+@@@.         ",
"    ...oo+@@@.         ",
"    .OOoo.@@@.         ",
"    ..ooOO.+O.         ",
"     ..oOO.oO.         ",
"      ..oO...          ",
"       ....            ",
"                       ",
"                       ",
"                       "
};
