/* XPM */
static char *fb8a007d51914861f2aac3a56cc4c65cUUVNR9DeO4cg1vJ0[] = {
/* columns rows colors chars-per-pixel */
"64 64 183 2 ",
"   c None",
".  c #252D18",
"X  c #2A2F1E",
"o  c #2C311F",
"O  c #2F3420",
"+  c #2D3821",
"@  c #273820",
"#  c #313620",
"$  c #3C3622",
"%  c #333921",
"&  c #393D23",
"*  c #4C3623",
"=  c #443923",
"-  c #4C3924",
";  c #463623",
":  c #543724",
">  c #5B3725",
",  c #523924",
"<  c #5B3B26",
"1  c #643A27",
"2  c #6B3B27",
"3  c #6F3B28",
"4  c #743B28",
"5  c #7D3B29",
"6  c #703827",
"7  c #3C4425",
"8  c #3E4825",
"9  c #414626",
"0  c #414A27",
"q  c #444E28",
"w  c #5F4F2B",
"e  c #465129",
"r  c #4B552B",
"t  c #4E5A2C",
"y  c #515E2D",
"u  c #59522B",
"i  c #434835",
"p  c #4E533F",
"a  c #555A34",
"s  c #5E5A3E",
"d  c #585C36",
"f  c #79452B",
"g  c #63562D",
"h  c #644228",
"j  c #53642D",
"k  c #5C6C2F",
"l  c #566530",
"z  c #586530",
"x  c #5B6B31",
"c  c #586637",
"v  c #656E34",
"b  c #637335",
"n  c #667935",
"m  c #697C36",
"M  c #6B7D38",
"N  c #6A7637",
"B  c #6E7143",
"V  c #71694A",
"C  c #6F7265",
"Z  c #75786C",
"A  c #727569",
"S  c #833C2A",
"D  c #8C3B2B",
"F  c #923B2B",
"G  c #9C3D2D",
"H  c #A33D2D",
"J  c #AB3E2E",
"K  c #B33E2F",
"L  c #BB3E30",
"P  c #C43F31",
"I  c #93402C",
"U  c #807753",
"Y  c #6F8239",
"T  c #6E8235",
"R  c #72853B",
"E  c #768C3C",
"W  c #798E3D",
"Q  c #7C933E",
"!  c #7A8943",
"~  c #7F9540",
"^  c #788061",
"/  c #7E8275",
"(  c #819A3F",
")  c #87A03F",
"_  c #809640",
"`  c #849B41",
"'  c #889B46",
"]  c #8C8756",
"[  c #869252",
"{  c #87A041",
"}  c #8AA344",
"|  c #8FA945",
" . c #8EA34B",
".. c #91AC46",
"X. c #92A44C",
"o. c #93AD49",
"O. c #94B146",
"+. c #99B646",
"@. c #9BB947",
"#. c #96B149",
"$. c #9AB54A",
"%. c #9DBA4B",
"&. c #94AA54",
"*. c #96A957",
"=. c #9CB251",
"-. c #9DB851",
";. c #A1BE4E",
":. c #A6A95F",
">. c #A4BD52",
",. c #A8BF55",
"<. c #A2BC5A",
"1. c #A7B55A",
"2. c #9E8969",
"3. c #9E9165",
"4. c #828872",
"5. c #A9946F",
"6. c #A39966",
"7. c #AA9570",
"8. c #9EB264",
"9. c #ACAA66",
"0. c #A4A460",
"q. c #A0B467",
"w. c #A0B468",
"e. c #B8B96B",
"r. c #BDAC78",
"t. c #A6B876",
"y. c #C2A77F",
"u. c #C5BE76",
"i. c #A3C24F",
"p. c #AAC256",
"a. c #A5C353",
"s. c #B1C05E",
"d. c #ACC665",
"f. c #B4C767",
"g. c #B4CB72",
"h. c #B2C677",
"j. c #CBCA75",
"k. c #C4C572",
"l. c #D0D078",
"z. c #9EA099",
"x. c #B0B3A5",
"c. c #CBB482",
"v. c #D1B489",
"b. c #DEBD92",
"n. c #C5A783",
"m. c #E2BE96",
"M. c #B4C584",
"N. c #DFC58E",
"B. c #D3C184",
"V. c #C2D58D",
"C. c #C8D79F",
"Z. c #E2CF8D",
"A. c #E5C496",
"S. c #E6C299",
"D. c #EEC99D",
"F. c #EACE96",
"G. c #F0CA9F",
"H. c #EED398",
"J. c #EDD297",
"K. c #F3D79B",
"L. c #CAD7A6",
"P. c #D3DEB2",
"I. c #C4CAB2",
"U. c #F4CCA1",
"Y. c #FCD4A6",
"T. c #FED9A6",
"R. c #FFD6A8",
"E. c #FFDAAB",
"W. c #D4E2AC",
"Q. c #DDE9BB",
"!. c #D9E4B9",
"~. c #C2C3C0",
"^. c #CCCCCA",
"/. c #DBDBDC",
"(. c #D7D7D8",
"). c #DDE5C5",
"_. c #E9EFDB",
"`. c #E0E7CA",
"'. c #EFF3E4",
"]. c #F2F4EB",
"[. c #F6F8EF",
"{. c #F7FAF2",
"}. c #F5F4F5",
/* pixels */
"                                                                                                                                ",
"                                                                                                                                ",
"                                                                                                                                ",
"                                                                                                                                ",
"                                                                                                                                ",
"                                                                                                                                ",
"                                                                                                                                ",
"                                                                                                                                ",
"                                                                                                                                ",
"                                                                                                                                ",
"                                                                                                                                ",
"                                              # # # # # # # # # # # # # # # # # # # # # # # #                                   ",
"                                            + # $ = - - - - = % % 7 0 q q e e e e e e e e e q 0                                 ",
"                                          + + # = 1 5 D D 5 > $ & e z n M Y Y Y Y Y Y Y R Y n y &                               ",
"                                        # # # $ < D K L L H 4 - 0 x W } | o.#.#.o.o.o.#.$.#.` x 0 #                             ",
"                                      + # $ - 1 S J P L J I f u j Y } O.%.i.;.@.$.$.$.%.;.;...R z r q                           ",
"                                      + # - 2 F J L L H 5 h g N E ` ..@.;.i.@.O.| | ..o.$.%.$.| ~ M y &                         ",
"                                        # , 5 J L P L D > 9 j E | =.<.<.-.#.o.&.&. .} | ..@.;.;.$.~ j & o                       ",
"                                          - 2 S G L L D : 7 j Q &.h.V.M.*.! [ t.M.t.&.} ..$.;.a.;.` l & o                       ",
"                                            = , 4 H K F : 7 j E 8.C.`.I.4.c ^ x.).L.8.} ..$.;.i.%._ l & o                       ",
"                                            = - 2 D G 5 * 7 j E w.P.].^.Z i C ~.].!.t.| ..%.;.i.%.~ l & o                       ",
"                                          - 3 S S 4 2 : $ 7 j E w.!.].^.Z i C ~.].).h.#.O.@.;.i.%.~ l & o                       ",
"                                        # , S H F 2 = % # 7 j E q.P.'.^./ p Z ~.].Q.g.%.@.%.;.i.%.~ l & o                       ",
"                                      + # - 3 D D 4 < ; $ 7 j E q.P.]./.z.4.z.(.[.Q.g.;.@.%.;.i.%._ l & o                       ",
"                                      + # $ - < 4 S D 6 ; 7 j E 8.P.].}./.^.(.}.{.Q.g.;.@.%.;.i.%.` l & o                       ",
"                                      # # % $ = 2 G K D : 7 j E 8.L._.{.[.].[.{.'.W.g.%.@.%.%.%.o.W j & o                       ",
"                                      + # $ , 3 F K L F : 7 j E *.M.L.!.Q.Q.Q.Q.W.V.d.i.i.i.$.` R b t &                         ",
"                                      + # - 4 H L P L D : 7 j E X.<.d.g.f.f.g.g.f.d.a.;.i.;.| M t 0                             ",
"                                        # , 5 H L P L D : 7 l E | o.$.%.@.@.#.| } } } } | } W z 7 o                             ",
"                                          - 1 4 F K L F : 7 j E } | | ..+.+.) T k k x b b b z r                                 ",
"                                            % = 1 G K D : 9 z W } } } ..$.$._ x 0 7 7 7 7 7 7                                   ",
"                                            @ # - 4 D f w y n Q } } | ..$.$.` n t 8 % O o o o                                   ",
"                                            + # $ * < g v R Q ( } | O.+.%.%.O.{ E z 8 # X                                       ",
"                                            # # % % 9 z R ` }  .X.=.>.,.p.,.p.p.=.R r # X                                       ",
"                                            # # 7 e l m Q  .*.:.9.e.k.j.j.j.l.l.e.[ a #                                         ",
"                                            o % e x E Q ` X.:.r.v.N.F.H.H.J.K.K.N.3.s # .                                       ",
"                                            o % r M ` } } X.9.c.m.U.Y.R.R.R.E.E.D.5.s # .                                       ",
"                                    # O o X X # r M ` } } X.9.c.m.U.R.R.E.R.E.E.G.7.s # .                                       ",
"                                  # # % % % # & t Y ` } { X.9.c.m.G.Y.R.R.R.R.E.D.5.s # .                                       ",
"                                  # & q t j j j b E ` } { X.9.c.m.U.Y.R.R.R.E.E.D.7.s # .                                       ",
"                                  # 7 z E ` ` ~ ` ` } { { X.9.c.S.U.Y.R.R.R.E.E.G.7.s # .                                       ",
"                                  # 0 b ` #.$.$.#.| } ` `  .0.r.v.S.U.Y.Y.Y.T.T.A.5.s # .                                       ",
"                                  # 7 y M ~ | $.#.| } ` { ' [ ] 2.n.S.U.U.D.F.Z.u.] a # .                                       ",
"                                  # % 7 q l R } | | ' } } _ N d V 2.v.S.S.b.B.k.1.! r # X                                       ",
"                                  # # O # 0 z R Q ` } | | ` m y d U 7.y.c.c.u.s.#.Y r # X                                       ",
"                                    # o O & q j n Q } ..#...` R M B V ] 6.e.f.p.+.Y r # X                                       ",
"                                      # # # % 7 y M ` ..$.%.%.#.` b r d ! $.>.>.o.Y r #                                         ",
"                                        # # o # 0 l Y _ ..%.i.i.| b 7 8 x E ` _ W n e #                                         ",
"                                            O # & 0 t n _ o.;.i.| n 7 & 0 t j j y t                                             ",
"                                            # # # # 7 y Y ` ..o.` b 7 # # % & & & &                                             ",
"                                              # O o # e z b m M b t 7 # o O o o o                                               ",
"                                                        0 0 q q q 7 % # # # #                                                   ",
"                                                        # # # # # # # # # # #                                                   ",
"                                                                                                                                ",
"                                                                                                                                ",
"                                                                                                                                ",
"                                                                                                                                ",
"                                                                                                                                ",
"                                                                                                                                ",
"                                                                                                                                ",
"                                                                                                                                ",
"                                                                                                                                ",
"                                                                                                                                ",
"                                                                                                                                "
};
