/* XPM */
static char *_e5c74b0628b4a62a1012bd12b7058f2i7zWk4BmDAuHch8D[] = {
/* columns rows colors chars-per-pixel */
"64 64 230 2 ",
"   c black",
".  c black",
"X  c black",
"o  c black",
"O  c black",
"+  c black",
"@  c black",
"#  c black",
"$  c black",
"%  c black",
"&  c #070A04",
"*  c #0C1206",
"=  c #0C1207",
"-  c black",
";  c #0B1106",
":  c None",
">  c #527C2C",
",  c #517B2C",
"<  c #090101",
"1  c #100202",
"2  c #110202",
"3  c #740E0E",
"4  c #1B0303",
"5  c #B71313",
"6  c #903939",
"7  c #150808",
"8  c #0F0202",
"9  c #190303",
"0  c #140808",
"q  c #0B0505",
"w  c #B71111",
"e  c #190202",
"r  c #730E0E",
"t  c #190202",
"y  c #100202",
"u  c #0C1207",
"i  c #0C1206",
"p  c #090D06",
"a  c #5C8A32",
"s  c #5C8A31",
"d  c #598430",
"f  c #45622A",
"g  c #598531",
"h  c #0C1106",
"j  c #17230C",
"k  c #5E8D32",
"l  c #699E39",
"z  c #669838",
"x  c #629236",
"c  c #4E6F30",
"v  c #4F7030",
"b  c #5E8D33",
"n  c #5C8B32",
"m  c #5B8A32",
"M  c #5D8D32",
"N  c #669B38",
"B  c #659837",
"V  c #517531",
"C  c #4D6F30",
"Z  c #4B6A2F",
"A  c #4E7030",
"S  c #649737",
"D  c #0D1006",
"F  c #617C2E",
"G  c #6F8E34",
"H  c #6E8D34",
"J  c #6D8C34",
"K  c #6A8633",
"L  c #56642C",
"P  c #535E2B",
"I  c #57642C",
"U  c #6E8E35",
"Y  c #72943A",
"T  c #648233",
"R  c #0D1107",
"E  c #100403",
"W  c #7D1E14",
"Q  c #8F2317",
"!  c #8E2216",
"~  c #8D2216",
"^  c #8B1D16",
"/  c #8A1C15",
"(  c #8E2217",
")  c #92281C",
"_  c #AB4D41",
"`  c #99493E",
"'  c #130A08",
"]  c #210404",
"[  c #840F10",
"{  c #951213",
"}  c #971717",
"|  c #941212",
" . c #931112",
".. c #941112",
"X. c #931111",
"o. c #B03C3D",
"O. c #A03A3B",
"+. c #240A0A",
"@. c #841010",
"#. c #901111",
"$. c #961818",
"%. c #AE3D3D",
"&. c #921212",
"*. c #931212",
"=. c #931313",
"-. c #971818",
";. c #951717",
":. c #851111",
">. c #110202",
",. c #821010",
"<. c #961212",
"1. c #9C1212",
"2. c #A11818",
"3. c #B93D3D",
"4. c #9D1212",
"5. c #9D1313",
"6. c #9C1313",
"7. c #951212",
"8. c #801010",
"9. c #D61616",
"0. c #E01818",
"q. c #E31D1D",
"w. c #E21D1D",
"e. c #DF1818",
"r. c #DF1717",
"t. c #E01717",
"y. c #9B1212",
"u. c #951818",
"i. c #130202",
"p. c #8A1010",
"a. c #A71414",
"s. c #DB1C1C",
"d. c #E51D1D",
"f. c #E91818",
"g. c #EA1818",
"h. c #E91919",
"j. c #A51414",
"k. c #A01818",
"l. c #1A0303",
"z. c #C51414",
"x. c #DC1D1D",
"c. c #BF3E3E",
"v. c #C13E3E",
"b. c #E41D1D",
"n. c #1C0303",
"m. c #CE1515",
"M. c #E61D1D",
"N. c #DA1D1D",
"B. c #A01919",
"V. c #951313",
"C. c #1B0303",
"Z. c #CD1515",
"A. c #EA1919",
"S. c #E81919",
"D. c #BA4343",
"F. c #B34242",
"G. c #AE3C3C",
"H. c #981818",
"J. c #810F0F",
"K. c #EB1818",
"L. c #941313",
"P. c #851616",
"I. c #120303",
"U. c #CF1515",
"Y. c #EC1818",
"T. c #E91616",
"R. c #E81717",
"E. c #B13D3D",
"W. c #9E3B3B",
"Q. c #150808",
"!. c #D21616",
"~. c #E61717",
"^. c #EA1B1B",
"/. c #EB3030",
"(. c #E91717",
"). c #941717",
"_. c #A03B3B",
"`. c #340505",
"'. c #D01414",
"]. c #ED3030",
"[. c #FACDCD",
"{. c #9E1313",
"}. c #831111",
"|. c #CD1313",
" X c #ED3434",
".X c #FDE7E7",
"XX c #EC3434",
"oX c #811010",
"OX c #100202",
"+X c #CF1313",
"@X c #EF3434",
"#X c #EC3232",
"$X c #E31A1A",
"%X c #A61414",
"&X c #D42E2E",
"*X c #F7CCCC",
"=X c #FBD0D0",
"-X c #EE4848",
";X c #E63434",
":X c #C14141",
">X c #E81818",
",X c #E11717",
"<X c #901212",
"1X c #340909",
"2X c #D32C2C",
"3X c #EF4949",
"4X c #F9CDCD",
"5X c #E63535",
"6X c #E31B1B",
"7X c #A61313",
"8X c #1A0202",
"9X c #CD1212",
"0X c #ED3232",
"qX c #EC3333",
"wX c #991818",
"eX c #F7CDCD",
"rX c #E81616",
"tX c #D91C1C",
"yX c #B83D3D",
"uX c #AC3C3C",
"iX c #881616",
"pX c #EF3131",
"aX c #EC1B1B",
"sX c #E21717",
"dX c #A71313",
"fX c #9A1818",
"gX c #210505",
"hX c #CF1414",
"jX c #C41515",
"kX c white",
/* pixels */
"                                                                                                                                ",
"                                                                                                                                ",
"                                                                                                                                ",
"                                                                                                                                ",
"                                                                                                                                ",
"                                                                                                                                ",
"                                                                                                                                ",
"                                                                                                                                ",
"                                                                                                                                ",
"                                                                                                                                ",
"                                                                                                                                ",
"                                                      . X o O O O O o X .                                                       ",
"                                                      + @ # $ $ $ $ # @ +                                                       ",
"                                              . X o % & * u u i p p i = & % o X .                                               ",
"                                              + @ # - ; : a s d f f g : ; - # @ +                                               ",
"                                          . + & * u h j k l z x c v z b j h u * & + .                                           ",
"                                          X @ = > n m M N B V C Z A S N M m n , * @ X                                           ",
"                                          o # D F G H H J K L P P I K J H U Y T R # o                                           ",
"                                          % - E W Q ! ! ! ~ ^ / / ^ ~ ( ! ) _ ` ' - %                                           ",
"                                      . + < 1 ] [ { } } |  ......... . .X.} o.O.+.1 < + .                                       ",
"                                      X @ 2 3 @.#.$.%.%.$.&.&.&.*.*.*.*.*.=.-.;.:.3 2 @ X                                       ",
"                                      o # >.,.<.1.2.3.3.2.4.5.6.| =.-.-.=.*.*.*.7.,.>.# o                                       ",
"                                      O $ >.8.5.9.0.q.w.e.r.t.9.y.u.%.%.$.&.*.*.| ,.>.$ O                                       ",
"                                      O $ i.p.a.s.d.f.f.g.h.d.s.j.k.3.3.2.1.| *.| ,.>.$ O                                       ",
"                                      O $ l.z.x.c.v.b.f.f.b.v.c.s.0.w.q.0.9.1.&.| ,.>.$ O                                       ",
"                                      O $ n.m.M.v.v.b.f.f.b.v.v.b.g.f.f.d.N.B.$.V.,.>.$ O                                       ",
"                                      O $ C.Z.A.b.b.S.f.f.f.b.b.S.f.f.b.v.D.F.G.H.J.>.$ O                                       ",
"                                      O $ C.Z.K.f.f.f.S.b.b.f.f.f.f.f.b.v.D.F.G.H.J.>.$ O                                       ",
"                                      O $ C.Z.K.f.f.f.b.v.v.b.f.f.f.f.S.b.N.B.$.L.J.>.$ O                                       ",
"                                      O $ C.Z.K.f.f.f.b.v.v.b.f.f.f.f.f.g.r.4.*.H.P.I.$ O                                       ",
"                                      o # C.U.Y.f.f.T.R.b.b.S.f.f.f.f.f.g.r.4.$.E.W.Q.# o                                       ",
"                                      X @ 4 5 !.~.^././.^.(.f.f.f.S.b.b.h.r.4.)._.6 7 @ X                                       ",
"                                      . + 8 9 `.'.].[.[./.T.f.f.f.b.v.v.d.t.{.}.+.0 q + .                                       ",
"                                          % - l.|. X.X.XXXR.b.b.f.b.v.c.s.9.5.oXOX- %                                           ",
"                                          o # C.+X@X.X.X#X$Xv.v.b.f.d.s.%X6.<.,.>.# o                                           ",
"                                          X @ 4 w &X*X=X-X;X:Xv.b.>X,X9.6.<X@.3 2 @ X                                           ",
"                                          . + 8 e 1X2X3X=X4X5X6Xh.t.7Xy.7.@.] 1 < + .                                           ",
"                                              % - 8X9X0X.X.XqXT.g.e.k.u.V.oXOX- %                                               ",
"                                              o # C.+X@X.X.XXXT.g.q.3.%.wX,.>.# o                                               ",
"                                              X @ 4 w &XeX[./.rXt.tXyXuXiXr 2 @ X                                               ",
"                                              . + 8 t 1X&XpXaXsXdX5.fXiXgXy < + .                                               ",
"                                                  + @ t w hXm.jXp.8.,.r y @ +                                                   ",
"                                                  . + 8 4 C.n.l.i.>.>.2 < + .                                                   ",
"                                                      + @ # $ $ $ $ # @ +                                                       ",
"                                                      . X o O O O O o X .                                                       ",
"                                                                                                                                ",
"                                                                                                                                ",
"                                                                                                                                ",
"                                                                                                                                ",
"                                                                                                                                ",
"                                                                                                                                ",
"                                                                                                                                ",
"                                                                                                                                ",
"                                                                                                                                ",
"                                                                                                                                ",
"                                                                                                                                ",
"                                                                                                                                ",
"                                                                                                                                ",
"                                                                                                                                ",
"                                                                                                                                ",
"                                                                                                                                ",
"                                                                                                                                ",
"                                                                                                                                ",
"                                                                                                                                "
};
